<svg xmlns="http://www.w3.org/2000/svg" width="256" height="256" viewBox="0 0 256 256" role="img" aria-label="MediaShare logo">
  <defs>
    <linearGradient id="g" x1="0" y1="0" x2="1" y2="1">
      <stop offset="0%" stop-color="#57d6dd"/>
      <stop offset="100%" stop-color="#2594c7"/>
    </linearGradient>
  </defs>
  <rect x="12" y="12" width="232" height="232" rx="48" fill="url(#g)"/>
  <path d="M62 154h132c9 0 16 7 16 16v0c0 9-7 16-16 16H62c-9 0-16-7-16-16v0c0-9 7-16 16-16z" fill="#ffffff" opacity="0.9"/>
  <path d="M62 70h132c9 0 16 7 16 16v0c0 9-7 16-16 16H62c-9 0-16-7-16-16v0c0-9 7-16 16-16z" fill="#ffffff" opacity="0.9"/>
  <circle cx="128" cy="128" r="28" fill="#ed8109"/>
</svg>
